# xmcd
# Copyright (C) 1995-1998 Ti Kan
#
# Track frame offsets:
#       150
#       11262
#       23941
#       41257
#       52493
#       68587
#       84132
#       96391
#       110236
#       125416
#       139772
#       153331
#       166874
#       179455
#       194277
#
# Disc length: 2799 seconds
#
# Revision: 0
# Processed by: cddbd v1.5.2PL0 Copyright (c) Steve Scherf et al.
# Submitted via: CD-Transfer v1.0
#
DISCID=c40aed0f
DTITLE=ALPENLAND SEPP and CO - 
DYEAR=07
DGENRE=
TTITLE0=WIA DA VOTA SO DIE BUAM
TTITLE1=WEIL DU VERLIABT BIST
TTITLE2=MAGST DU MI
TTITLE3=ALPENLAND MAZURKA
TTITLE4=DIE ZEIT IST SO SCHNELL WORDN
TTITLE5=MEI HERZERL SCHLAGT HEUT NUR FÜR DI
TTITLE6=ALPINA BAYRISCH
TTITLE7=KEIN KIND VON TRAURIGKEIT
TTITLE8=WO MEI HÜTTN STEHT
TTITLE9=DIE POST IM WALDE
TTITLE10=KNAPP VORBEI IST AUCH DANEBEN
TTITLE11=ICH HAB KEIN GELD FÜR EIN ORCHESTER
TTITLE12=MIR SAN MIR SO WIE MIR SAN
TTITLE13=DES IS HOAMAT
TTITLE14=DEM LAND TIROL DIE TREUE
EXTD=
EXTT0=
EXTT1=
EXTT2=
EXTT3=
EXTT4=
EXTT5=
EXTT6=
EXTT7=
EXTT8=
EXTT9=
EXTT10=
EXTT11=
EXTT12=
EXTT13=
EXTT14=
PLAYORDER=
